name E:\Dropbox\SEL\BOX\Experiment\240124_SUB1_PJH\c3d\XYZ\UpDown_TrcMot\15_10_trial2_U1_ExtLoadAPP3.mot
datacolumns 37
datarows 13
range 1.877 1.889
endheader

time	    ground_force1_vx	    ground_force1_vy	    ground_force1_vz	    ground_force1_px	    ground_force1_py	    ground_force1_pz	    ground_torque1_x	    ground_torque1_y	    ground_torque1_z	    ground_force2_vx	    ground_force2_vy	    ground_force2_vz	    ground_force2_px	    ground_force2_py	    ground_force2_pz	    ground_torque2_x	    ground_torque2_y	    ground_torque2_z	      hand_force3_vx	      hand_force3_vy	      hand_force3_vz	      hand_force3_px	      hand_force3_py	      hand_force3_pz	      hand_torque3_x	      hand_torque3_y	      hand_torque3_z	      hand_force4_vx	      hand_force4_vy	      hand_force4_vz	      hand_force4_px	      hand_force4_py	      hand_force4_pz	      hand_torque4_x	      hand_torque4_y	      hand_torque4_z	
1.877	         35.02141655	        474.61080117	          5.35023885	          0.22333170	          0.00000000	          0.19636506	          0.00000000	         -2.35424570	          0.00000000	        -41.28042475	        526.24026595	          2.93668206	          0.57440861	          0.00000000	          0.20063599	          0.00000000	          0.11322271	          0.00000000	          0.00000000	          0.00000000	          0.00000000	          0.14273706	          0.52593830	         -0.00822380	          0.00000000	          0.00000000	          0.00000000	          0.00000000	          0.00000000	          0.00000000	          0.65268486	          0.54037521	         -0.02059306	          0.00000000	          0.00000000	          0.00000000	
1.878	         35.00981788	        474.40859981	          5.33003989	          0.22332843	          0.00000000	          0.19642562	          0.00000000	         -2.36425987	          0.00000000	        -41.28091640	        526.39193422	          2.82445062	          0.57440656	          0.00000000	          0.20079893	          0.00000000	          0.12963342	          0.00000000	          0.00000000	          0.00000000	          0.00000000	          0.14274407	          0.52679034	         -0.00799846	          0.00000000	          0.00000000	          0.00000000	          0.00000000	          0.00000000	          0.00000000	          0.65269492	          0.54118350	         -0.02034780	          0.00000000	          0.00000000	          0.00000000	
1.879	         34.99732612	        474.19693795	          5.30849636	          0.22332491	          0.00000000	          0.19648681	          0.00000000	         -2.37439021	          0.00000000	        -41.28145038	        526.53769206	          2.71397701	          0.57440457	          0.00000000	          0.20096190	          0.00000000	          0.14605757	          0.00000000	          0.00000000	          0.00000000	          0.00000000	          0.14275118	          0.52764479	         -0.00777355	          0.00000000	          0.00000000	          0.00000000	          0.00000000	          0.00000000	          0.00000000	          0.65270478	          0.54199463	         -0.02010260	          0.00000000	          0.00000000	          0.00000000	
1.88	         34.98390860	        473.97550502	          5.28556382	          0.22332114	          0.00000000	          0.19654861	          0.00000000	         -2.38463669	          0.00000000	        -41.28199310	        526.67712975	          2.60536276	          0.57440266	          0.00000000	          0.20112483	          0.00000000	          0.16249168	          0.00000000	          0.00000000	          0.00000000	          0.00000000	          0.14275839	          0.52850162	         -0.00754908	          0.00000000	          0.00000000	          0.00000000	          0.00000000	          0.00000000	          0.00000000	          0.65271442	          0.54280860	         -0.01985744	          0.00000000	          0.00000000	          0.00000000	
1.881	         34.96953669	        473.74401211	          5.26119868	          0.22331714	          0.00000000	          0.19661101	          0.00000000	         -2.39499915	          0.00000000	        -41.28251068	        526.80984751	          2.49870155	          0.57440082	          0.00000000	          0.20128764	          0.00000000	          0.17893270	          0.00000000	          0.00000000	          0.00000000	          0.00000000	          0.14276571	          0.52936084	         -0.00732509	          0.00000000	          0.00000000	          0.00000000	          0.00000000	          0.00000000	          0.00000000	          0.65272384	          0.54362546	         -0.01961236	          0.00000000	          0.00000000	          0.00000000	
1.882	         34.95418585	        473.50219265	          5.23535822	          0.22331289	          0.00000000	          0.19667401	          0.00000000	         -2.40547729	          0.00000000	        -41.28296904	        526.93545638	          2.39407892	          0.57439906	          0.00000000	          0.20145027	          0.00000000	          0.19537803	          0.00000000	          0.00000000	          0.00000000	          0.00000000	          0.14277313	          0.53022242	         -0.00710158	          0.00000000	          0.00000000	          0.00000000	          0.00000000	          0.00000000	          0.00000000	          0.65273301	          0.54444521	         -0.01936736	          0.00000000	          0.00000000	          0.00000000	
1.883	         34.93783556	        473.24980313	          5.20800053	          0.22330841	          0.00000000	          0.19673763	          0.00000000	         -2.41607067	          0.00000000	        -41.28333403	        527.05357913	          2.29157206	          0.57439737	          0.00000000	          0.20161266	          0.00000000	          0.21182556	          0.00000000	          0.00000000	          0.00000000	          0.00000000	          0.14278066	          0.53108636	         -0.00687858	          0.00000000	          0.00000000	          0.00000000	          0.00000000	          0.00000000	          0.00000000	          0.65274195	          0.54526788	         -0.01912245	          0.00000000	          0.00000000	          0.00000000	
1.884	         34.92046939	        472.98662357	          5.17908452	          0.22330369	          0.00000000	          0.19680187	          0.00000000	         -2.42677870	          0.00000000	        -41.28357155	        527.16385102	          2.19124960	          0.57439576	          0.00000000	          0.20177475	          0.00000000	          0.22827356	          0.00000000	          0.00000000	          0.00000000	          0.00000000	          0.14278830	          0.53195264	         -0.00665610	          0.00000000	          0.00000000	          0.00000000	          0.00000000	          0.00000000	          0.00000000	          0.65275063	          0.54609349	         -0.01887766	          0.00000000	          0.00000000	          0.00000000	
1.885	         34.90207492	        472.71245809	          5.14856987	          0.22329874	          0.00000000	          0.19686674	          0.00000000	         -2.43760069	          0.00000000	        -41.28364767	        527.26592063	          2.09317140	          0.57439423	          0.00000000	          0.20193649	          0.00000000	          0.24472079	          0.00000000	          0.00000000	          0.00000000	          0.00000000	          0.14279604	          0.53282126	         -0.00643417	          0.00000000	          0.00000000	          0.00000000	          0.00000000	          0.00000000	          0.00000000	          0.65275906	          0.54692206	         -0.01863298	          0.00000000	          0.00000000	          0.00000000	
1.886	         34.88264370	        472.42713522	          5.11641701	          0.22329357	          0.00000000	          0.19693228	          0.00000000	         -2.44853579	          0.00000000	        -41.28352874	        527.35945062	          1.99738843	          0.57439278	          0.00000000	          0.20209782	          0.00000000	          0.26116640	          0.00000000	          0.00000000	          0.00000000	          0.00000000	          0.14280389	          0.53369219	         -0.00621280	          0.00000000	          0.00000000	          0.00000000	          0.00000000	          0.00000000	          0.00000000	          0.65276722	          0.54775361	         -0.01838845	          0.00000000	          0.00000000	          0.00000000	
1.887	         34.86217120	        472.13050826	          5.08258707	          0.22328817	          0.00000000	          0.19699851	          0.00000000	         -2.45958306	          0.00000000	        -41.28318157	        527.44411848	          1.90394261	          0.57439141	          0.00000000	          0.20225871	          0.00000000	          0.27760997	          0.00000000	          0.00000000	          0.00000000	          0.00000000	          0.14281185	          0.53456543	         -0.00599201	          0.00000000	          0.00000000	          0.00000000	          0.00000000	          0.00000000	          0.00000000	          0.65277512	          0.54858815	         -0.01814406	          0.00000000	          0.00000000	          0.00000000	
1.888	         34.84065671	        471.82245546	          5.04704184	          0.22328256	          0.00000000	          0.19706546	          0.00000000	         -2.47074142	          0.00000000	        -41.28257349	        527.51961716	          1.81286677	          0.57439012	          0.00000000	          0.20241913	          0.00000000	          0.29405149	          0.00000000	          0.00000000	          0.00000000	          0.00000000	          0.14281992	          0.53544097	         -0.00577183	          0.00000000	          0.00000000	          0.00000000	          0.00000000	          0.00000000	          0.00000000	          0.65278274	          0.54942571	         -0.01789983	          0.00000000	          0.00000000	          0.00000000	
1.889	         34.81810327	        471.50288013	          5.00974375	          0.22327674	          0.00000000	          0.19713318	          0.00000000	         -2.48200970	          0.00000000	        -41.28167251	        527.58565577	          1.72418451	          0.57438892	          0.00000000	          0.20257903	          0.00000000	          0.31049132	          0.00000000	          0.00000000	          0.00000000	          0.00000000	          0.14282809	          0.53631880	         -0.00555226	          0.00000000	          0.00000000	          0.00000000	          0.00000000	          0.00000000	          0.00000000	          0.65279009	          0.55026629	         -0.01765578	          0.00000000	          0.00000000	          0.00000000	
